<?xml version="1.0" encoding="UTF-8" standalone="no"?><svg xmlns="http://www.w3.org/2000/svg" xmlns:xlink="http://www.w3.org/1999/xlink" contentStyleType="text/css" height="202px" preserveAspectRatio="none" style="width:388px;height:202px;background:#FFFFFF;" version="1.1" viewBox="0 0 388 202" width="388px" zoomAndPan="magnify"><defs/><g><!--MD5=[eb89fe63591b67f4dcc46a3eccacbd55]
cluster de.schule--><g id="cluster_de.schule"><path d="M8.5,6 L78.5,6 A3.75,3.75 0 0 1 81,8.5 L88,29.6094 L378.5,29.6094 A2.5,2.5 0 0 1 381,32.1094 L381,173.5 A2.5,2.5 0 0 1 378.5,176 L8.5,176 A2.5,2.5 0 0 1 6,173.5 L6,8.5 A2.5,2.5 0 0 1 8.5,6 " style="stroke:#000000;stroke-width:1.5;fill:none;"/><line style="stroke:#000000;stroke-width:1.5;fill:none;" x1="6" x2="88" y1="29.6094" y2="29.6094"/><text fill="#000000" font-family="sans-serif" font-size="14" font-weight="bold" lengthAdjust="spacing" textLength="69" x="10" y="22.5332">de.schule</text></g><!--MD5=[0621a0a3fd0558e398014ac1783f70a4]
class de.schule.App--><a href="App.html" target="_top" title="App.html" xlink:actuate="onRequest" xlink:href="App.html" xlink:show="new" xlink:title="App.html" xlink:type="simple"><g id="elem_de.schule.App"><rect codeLine="3" fill="#F1F1F1" height="65.6094" id="de.schule.App" rx="2.5" ry="2.5" style="stroke:#181818;stroke-width:0.5;" width="145" x="219.5" y="68"/><ellipse cx="275.25" cy="84" fill="#ADD1B2" rx="11" ry="11" style="stroke:#181818;stroke-width:1.0;"/><path d="M278.0156,79.875 Q278.1719,79.6563 278.3594,79.5469 Q278.5469,79.4375 278.7656,79.4375 Q279.1406,79.4375 279.375,79.7031 Q279.6094,79.9531 279.6094,80.5625 L279.6094,82.0156 Q279.6094,82.625 279.375,82.8906 Q279.1406,83.1563 278.7656,83.1563 Q278.4219,83.1563 278.2188,82.9531 Q278.0156,82.7656 277.9063,82.25 Q277.8594,81.8906 277.6719,81.7031 Q277.3438,81.3281 276.7344,81.1094 Q276.125,80.8906 275.5,80.8906 Q274.7344,80.8906 274.0938,81.2188 Q273.4688,81.5469 272.9688,82.2969 Q272.4844,83.0469 272.4844,84.0781 L272.4844,85.1719 Q272.4844,86.4063 273.375,87.2344 Q274.2656,88.0469 275.8594,88.0469 Q276.7969,88.0469 277.4531,87.7969 Q277.8438,87.6406 278.2656,87.2031 Q278.5313,86.9375 278.6719,86.8594 Q278.8281,86.7813 279.0313,86.7813 Q279.3594,86.7813 279.6094,87.0469 Q279.875,87.2969 279.875,87.6406 Q279.875,87.9844 279.5313,88.3906 Q279.0313,88.9688 278.2344,89.2969 Q277.1563,89.75 275.8594,89.75 Q274.3438,89.75 273.1406,89.125 Q272.1563,88.625 271.4688,87.5625 Q270.7813,86.4844 270.7813,85.2031 L270.7813,84.0469 Q270.7813,82.7188 271.3906,81.5781 Q272.0156,80.4219 273.1094,79.8125 Q274.2031,79.1875 275.4375,79.1875 Q276.1719,79.1875 276.8125,79.3594 Q277.4688,79.5156 278.0156,79.875 Z " fill="#000000"/><text fill="#000000" font-family="sans-serif" font-size="14" lengthAdjust="spacing" textLength="25" x="295.75" y="89.7285">App</text><line style="stroke:#181818;stroke-width:0.5;" x1="220.5" x2="363.5" y1="100" y2="100"/><line style="stroke:#181818;stroke-width:0.5;" x1="220.5" x2="363.5" y1="108" y2="108"/><ellipse cx="230.5" cy="119" fill="#84BE84" rx="3" ry="3" style="stroke:#038048;stroke-width:1.0;"/><text fill="#000000" font-family="sans-serif" font-size="14" lengthAdjust="spacing" text-decoration="underline" textLength="119" x="239.5" y="126.5332">main(String[]): void</text></g></a><!--MD5=[4438e6f5ddb1f203aba79f23de0d7faf]
class de.schule.Person--><a href="Person.html" target="_top" title="Person.html" xlink:actuate="onRequest" xlink:href="Person.html" xlink:show="new" xlink:title="Person.html" xlink:type="simple"><g id="elem_de.schule.Person"><rect codeLine="7" fill="#F1F1F1" height="118.4375" id="de.schule.Person" rx="2.5" ry="2.5" style="stroke:#181818;stroke-width:0.5;" width="162" x="22" y="42"/><ellipse cx="76.25" cy="58" fill="#ADD1B2" rx="11" ry="11" style="stroke:#181818;stroke-width:1.0;"/><path d="M79.0156,53.875 Q79.1719,53.6563 79.3594,53.5469 Q79.5469,53.4375 79.7656,53.4375 Q80.1406,53.4375 80.375,53.7031 Q80.6094,53.9531 80.6094,54.5625 L80.6094,56.0156 Q80.6094,56.625 80.375,56.8906 Q80.1406,57.1563 79.7656,57.1563 Q79.4219,57.1563 79.2188,56.9531 Q79.0156,56.7656 78.9063,56.25 Q78.8594,55.8906 78.6719,55.7031 Q78.3438,55.3281 77.7344,55.1094 Q77.125,54.8906 76.5,54.8906 Q75.7344,54.8906 75.0938,55.2188 Q74.4688,55.5469 73.9688,56.2969 Q73.4844,57.0469 73.4844,58.0781 L73.4844,59.1719 Q73.4844,60.4063 74.375,61.2344 Q75.2656,62.0469 76.8594,62.0469 Q77.7969,62.0469 78.4531,61.7969 Q78.8438,61.6406 79.2656,61.2031 Q79.5313,60.9375 79.6719,60.8594 Q79.8281,60.7813 80.0313,60.7813 Q80.3594,60.7813 80.6094,61.0469 Q80.875,61.2969 80.875,61.6406 Q80.875,61.9844 80.5313,62.3906 Q80.0313,62.9688 79.2344,63.2969 Q78.1563,63.75 76.8594,63.75 Q75.3438,63.75 74.1406,63.125 Q73.1563,62.625 72.4688,61.5625 Q71.7813,60.4844 71.7813,59.2031 L71.7813,58.0469 Q71.7813,56.7188 72.3906,55.5781 Q73.0156,54.4219 74.1094,53.8125 Q75.2031,53.1875 76.4375,53.1875 Q77.1719,53.1875 77.8125,53.3594 Q78.4688,53.5156 79.0156,53.875 Z " fill="#000000"/><text fill="#000000" font-family="sans-serif" font-size="14" lengthAdjust="spacing" textLength="45" x="96.75" y="63.7285">Person</text><line style="stroke:#181818;stroke-width:0.5;" x1="23" x2="183" y1="74" y2="74"/><rect fill="none" height="6" style="stroke:#C82930;stroke-width:1.0;" width="6" x="30" y="82"/><text fill="#000000" font-family="sans-serif" font-size="14" lengthAdjust="spacing" textLength="80" x="42" y="92.5332">name: String</text><rect fill="none" height="6" style="stroke:#C82930;stroke-width:1.0;" width="6" x="30" y="99.6094"/><text fill="#000000" font-family="sans-serif" font-size="14" lengthAdjust="spacing" textLength="51" x="42" y="110.1426">alter: int</text><line style="stroke:#181818;stroke-width:0.5;" x1="23" x2="183" y1="117.2188" y2="117.2188"/><ellipse cx="33" cy="128.2188" fill="#84BE84" rx="3" ry="3" style="stroke:#038048;stroke-width:1.0;"/><text fill="#000000" font-family="sans-serif" font-size="14" lengthAdjust="spacing" textLength="111" x="42" y="135.752">getName(): String</text><ellipse cx="33" cy="145.8281" fill="#84BE84" rx="3" ry="3" style="stroke:#038048;stroke-width:1.0;"/><text fill="#000000" font-family="sans-serif" font-size="14" lengthAdjust="spacing" textLength="136" x="42" y="153.3613">setName(String): void</text></g></a><rect height="12.5781" style="stroke:#00000000;stroke-width:1.0;fill:none;" width="184" x="95" y="182"/><text fill="#888888" font-family="sans-serif" font-size="10" lengthAdjust="spacing" textLength="184" x="95" y="192.3809">UMLDoclet 2.0.17, PlantUML 1.2022.5</text><!--MD5=[5be698fb6bdb1194e2e2337bda1ed4d5]
@startuml
    namespace de.schule {

        class App [[App.html]] {
            {static} +main(String[]): void
        }

        class Person [[Person.html]] {
            -name: String
            -alter: int
            +getName(): String
            +setName(String): void
        }

    }

    center footer UMLDoclet 2.0.17, PlantUML 1.2022.5
@enduml

PlantUML version 1.2022.5(Sat Apr 30 12:55:52 CEST 2022)
(APACHE source distribution)
Java Runtime: OpenJDK Runtime Environment
JVM: OpenJDK 64-Bit Server VM
Default Encoding: Cp1252
Language: de
Country: DE
--></g></svg>